# xmcd
#
# Track frame offsets: 
#        150
#        13300
#        25900
#        42050
#        51537
#        62262
#        74600
#        87350
#        99775
#        113200
#        125800
#        136971
#        147800
#        161095
#        171282
#        181038
#        187530
#        200800
#
# Disc length: 2786 seconds
#
# Revision: 2
# Processed by: cddbd v1.5.2PL0 Copyright (c) Steve Scherf et al.
# Submitted via: ExactAudioCopyFreeDBPlugin 1.0
#
DISCID=fb0ae012
DTITLE=The Oak Ridge Boys - The Oak Ridge Boys digital remastered
DYEAR=1998
DGENRE=Country
TTITLE0=The Old Country Church
TTITLE1=Because Of Him
TTITLE2=Farther Along
TTITLE3=I Know Who Holds Tomorrow
TTITLE4=My Heavenly Father Watches Over Me
TTITLE5=When I Lay My Burdens Down
TTITLE6=You'll Never Walk Alone
TTITLE7=On The Sunny Banks
TTITLE8=Lead Me To Calvary
TTITLE9=In The Shelter Of His Arms
TTITLE10=Walk With Me
TTITLE11=It's Different Now
TTITLE12=Dear Jesus Abide With Me
TTITLE13=I Wouldn't Take Nothing For My Journey Now
TTITLE14=Until Then
TTITLE15=The Christian Way
TTITLE16=The Angel Must Have Cried
TTITLE17=Someday
EXTD=
EXTT0=
EXTT1=
EXTT2=
EXTT3=
EXTT4=
EXTT5=
EXTT6=
EXTT7=
EXTT8=
EXTT9=
EXTT10=
EXTT11=
EXTT12=
EXTT13=
EXTT14=
EXTT15=
EXTT16=
EXTT17=
PLAYORDER=
